<mxfile host="Electron" agent="Mozilla/5.0 (Windows NT 10.0; Win64; x64) AppleWebKit/537.36 (KHTML, like Gecko) draw.io/24.7.17 Chrome/128.0.6613.36 Electron/32.0.1 Safari/537.36" version="24.7.17">
  <diagram name="Page-1" id="QAJUCZiEp5-xCGz0fikD">
    <mxGraphModel dx="1823" dy="934" grid="1" gridSize="10" guides="1" tooltips="1" connect="1" arrows="1" fold="1" page="1" pageScale="1" pageWidth="1600" pageHeight="900" math="0" shadow="0">
      <root>
        <mxCell id="0" />
        <mxCell id="1" parent="0" />
        <mxCell id="uT60j-N9yXgm61QFCrmv-1" value="" style="rounded=1;whiteSpace=wrap;html=1;" parent="1" vertex="1">
          <mxGeometry x="40" y="40" width="1520" height="120" as="geometry" />
        </mxCell>
        <mxCell id="uT60j-N9yXgm61QFCrmv-2" value="" style="whiteSpace=wrap;html=1;aspect=fixed;" parent="1" vertex="1">
          <mxGeometry x="70" y="60" width="80" height="80" as="geometry" />
        </mxCell>
        <mxCell id="uT60j-N9yXgm61QFCrmv-3" value="" style="endArrow=none;html=1;rounded=0;entryX=1;entryY=0;entryDx=0;entryDy=0;exitX=0;exitY=1;exitDx=0;exitDy=0;" parent="1" source="uT60j-N9yXgm61QFCrmv-2" target="uT60j-N9yXgm61QFCrmv-2" edge="1">
          <mxGeometry width="50" height="50" relative="1" as="geometry">
            <mxPoint x="90" y="140" as="sourcePoint" />
            <mxPoint x="140" y="90" as="targetPoint" />
          </mxGeometry>
        </mxCell>
        <mxCell id="uT60j-N9yXgm61QFCrmv-4" value="" style="endArrow=none;html=1;rounded=0;entryX=1;entryY=1;entryDx=0;entryDy=0;exitX=0;exitY=0;exitDx=0;exitDy=0;" parent="1" source="uT60j-N9yXgm61QFCrmv-2" target="uT60j-N9yXgm61QFCrmv-2" edge="1">
          <mxGeometry width="50" height="50" relative="1" as="geometry">
            <mxPoint x="210" y="160" as="sourcePoint" />
            <mxPoint x="260" y="110" as="targetPoint" />
          </mxGeometry>
        </mxCell>
        <mxCell id="uT60j-N9yXgm61QFCrmv-16" value="&lt;font style=&quot;font-size: 48px;&quot;&gt;Text&lt;/font&gt;" style="text;html=1;align=center;verticalAlign=middle;whiteSpace=wrap;rounded=0;" parent="1" vertex="1">
          <mxGeometry x="190" y="85" width="60" height="30" as="geometry" />
        </mxCell>
        <mxCell id="uT60j-N9yXgm61QFCrmv-17" value="" style="rounded=1;whiteSpace=wrap;html=1;" parent="1" vertex="1">
          <mxGeometry x="40" y="200" width="720" height="520" as="geometry" />
        </mxCell>
        <mxCell id="uT60j-N9yXgm61QFCrmv-18" value="" style="rounded=1;whiteSpace=wrap;html=1;" parent="1" vertex="1">
          <mxGeometry x="840" y="200" width="720" height="520" as="geometry" />
        </mxCell>
        <mxCell id="uT60j-N9yXgm61QFCrmv-19" value="" style="rounded=1;whiteSpace=wrap;html=1;" parent="1" vertex="1">
          <mxGeometry x="40" y="760" width="1520" height="300" as="geometry" />
        </mxCell>
        <mxCell id="x0cgLDehfL7VIIdEfukl-2" value="" style="whiteSpace=wrap;html=1;aspect=fixed;" vertex="1" parent="1">
          <mxGeometry x="195" y="255" width="410" height="410" as="geometry" />
        </mxCell>
        <mxCell id="x0cgLDehfL7VIIdEfukl-3" value="" style="endArrow=none;html=1;rounded=0;entryX=1;entryY=0;entryDx=0;entryDy=0;exitX=0;exitY=1;exitDx=0;exitDy=0;" edge="1" source="x0cgLDehfL7VIIdEfukl-2" target="x0cgLDehfL7VIIdEfukl-2" parent="1">
          <mxGeometry width="50" height="50" relative="1" as="geometry">
            <mxPoint x="380" y="500" as="sourcePoint" />
            <mxPoint x="430" y="450" as="targetPoint" />
          </mxGeometry>
        </mxCell>
        <mxCell id="x0cgLDehfL7VIIdEfukl-4" value="" style="endArrow=none;html=1;rounded=0;entryX=1;entryY=1;entryDx=0;entryDy=0;exitX=0;exitY=0;exitDx=0;exitDy=0;" edge="1" source="x0cgLDehfL7VIIdEfukl-2" target="x0cgLDehfL7VIIdEfukl-2" parent="1">
          <mxGeometry width="50" height="50" relative="1" as="geometry">
            <mxPoint x="500" y="520" as="sourcePoint" />
            <mxPoint x="550" y="470" as="targetPoint" />
          </mxGeometry>
        </mxCell>
        <mxCell id="x0cgLDehfL7VIIdEfukl-5" value="&lt;h1 style=&quot;margin-top: 0px;&quot;&gt;&lt;font style=&quot;font-size: 72px;&quot;&gt;Heading&lt;/font&gt;&lt;/h1&gt;&lt;p&gt;&lt;font style=&quot;font-size: 24px;&quot;&gt;Lorem ipsum dolor sit amet, consectetur adipisicing elit, sed do eiusmod tempor incididunt ut labore et dolore magna aliqua.&lt;/font&gt;&lt;/p&gt;" style="text;html=1;whiteSpace=wrap;overflow=hidden;rounded=0;" vertex="1" parent="1">
          <mxGeometry x="910" y="255" width="600" height="425" as="geometry" />
        </mxCell>
        <mxCell id="x0cgLDehfL7VIIdEfukl-7" value="" style="rounded=0;whiteSpace=wrap;html=1;" vertex="1" parent="1">
          <mxGeometry x="70" y="790" width="120" height="60" as="geometry" />
        </mxCell>
        <mxCell id="x0cgLDehfL7VIIdEfukl-8" value="" style="rounded=0;whiteSpace=wrap;html=1;" vertex="1" parent="1">
          <mxGeometry x="190" y="790" width="120" height="60" as="geometry" />
        </mxCell>
        <mxCell id="x0cgLDehfL7VIIdEfukl-9" value="" style="rounded=0;whiteSpace=wrap;html=1;" vertex="1" parent="1">
          <mxGeometry x="70" y="850" width="120" height="60" as="geometry" />
        </mxCell>
        <mxCell id="x0cgLDehfL7VIIdEfukl-10" value="" style="rounded=0;whiteSpace=wrap;html=1;" vertex="1" parent="1">
          <mxGeometry x="190" y="850" width="120" height="60" as="geometry" />
        </mxCell>
        <mxCell id="x0cgLDehfL7VIIdEfukl-11" value="" style="rounded=0;whiteSpace=wrap;html=1;" vertex="1" parent="1">
          <mxGeometry x="70" y="910" width="120" height="60" as="geometry" />
        </mxCell>
        <mxCell id="x0cgLDehfL7VIIdEfukl-12" value="" style="rounded=0;whiteSpace=wrap;html=1;" vertex="1" parent="1">
          <mxGeometry x="190" y="910" width="120" height="60" as="geometry" />
        </mxCell>
        <mxCell id="x0cgLDehfL7VIIdEfukl-13" value="" style="rounded=0;whiteSpace=wrap;html=1;" vertex="1" parent="1">
          <mxGeometry x="70" y="970" width="120" height="60" as="geometry" />
        </mxCell>
        <mxCell id="x0cgLDehfL7VIIdEfukl-14" value="" style="rounded=0;whiteSpace=wrap;html=1;" vertex="1" parent="1">
          <mxGeometry x="190" y="970" width="120" height="60" as="geometry" />
        </mxCell>
        <mxCell id="x0cgLDehfL7VIIdEfukl-15" value="Text" style="text;html=1;align=center;verticalAlign=middle;whiteSpace=wrap;rounded=0;" vertex="1" parent="1">
          <mxGeometry x="100" y="805" width="60" height="30" as="geometry" />
        </mxCell>
        <mxCell id="x0cgLDehfL7VIIdEfukl-16" value="Text" style="text;html=1;align=center;verticalAlign=middle;whiteSpace=wrap;rounded=0;" vertex="1" parent="1">
          <mxGeometry x="220" y="805" width="60" height="30" as="geometry" />
        </mxCell>
        <mxCell id="x0cgLDehfL7VIIdEfukl-17" value="Text" style="text;html=1;align=center;verticalAlign=middle;whiteSpace=wrap;rounded=0;" vertex="1" parent="1">
          <mxGeometry x="100" y="865" width="60" height="30" as="geometry" />
        </mxCell>
        <mxCell id="x0cgLDehfL7VIIdEfukl-18" value="Text" style="text;html=1;align=center;verticalAlign=middle;whiteSpace=wrap;rounded=0;" vertex="1" parent="1">
          <mxGeometry x="220" y="865" width="60" height="30" as="geometry" />
        </mxCell>
        <mxCell id="x0cgLDehfL7VIIdEfukl-19" value="Text" style="text;html=1;align=center;verticalAlign=middle;whiteSpace=wrap;rounded=0;" vertex="1" parent="1">
          <mxGeometry x="100" y="925" width="60" height="30" as="geometry" />
        </mxCell>
        <mxCell id="x0cgLDehfL7VIIdEfukl-20" value="Text" style="text;html=1;align=center;verticalAlign=middle;whiteSpace=wrap;rounded=0;" vertex="1" parent="1">
          <mxGeometry x="220" y="925" width="60" height="30" as="geometry" />
        </mxCell>
        <mxCell id="x0cgLDehfL7VIIdEfukl-21" value="Text" style="text;html=1;align=center;verticalAlign=middle;whiteSpace=wrap;rounded=0;" vertex="1" parent="1">
          <mxGeometry x="100" y="985" width="60" height="30" as="geometry" />
        </mxCell>
        <mxCell id="x0cgLDehfL7VIIdEfukl-22" value="Text" style="text;html=1;align=center;verticalAlign=middle;whiteSpace=wrap;rounded=0;" vertex="1" parent="1">
          <mxGeometry x="220" y="985" width="60" height="30" as="geometry" />
        </mxCell>
      </root>
    </mxGraphModel>
  </diagram>
</mxfile>
